<svg width="705" height="592" viewBox="0 0 705 592" fill="none" xmlns="http://www.w3.org/2000/svg">
<rect width="729.055" height="35.064" transform="matrix(0.906308 -0.422618 -0.422618 -0.906308 43.3357 545.854)" fill="#FF30A0"/>
<rect width="729.055" height="35.064" transform="matrix(0.906308 -0.422618 -0.422618 -0.906308 29.6375 516.712)" fill="#FFE596"/>
<rect width="729.055" height="35.064" transform="matrix(0.906308 -0.422618 -0.422618 -0.906308 14.8186 484.932)" fill="#24B0FF"/>
<path d="M120.996 436.269L379.958 280.696V591.842L120.996 436.269Z" fill="#00FFFF"/>
<path d="M638.919 436.269L379.958 280.696V591.842L638.919 436.269Z" fill="#009695"/>
<path d="M189.381 328.4L312.677 367.267L119.914 437.427L189.381 328.4Z" fill="#00FFFF"/>
<path d="M569.465 320.482L442.06 363.983L639.101 435.7L569.465 320.482Z" fill="#009695"/>
<path d="M382.291 0L588.374 349.948H176.207L382.291 0Z" fill="#00FFFF"/>
<path d="M379.958 587.913L176.988 349.948L581.073 349.948L379.958 587.913Z" fill="#00C1C1"/>
<path d="M379.958 587.913L176.988 349.948L581.073 349.948L379.958 587.913Z" fill="#00C1C1"/>
<path d="M239.978 237.965L302.612 349.948H177.345L239.978 237.965Z" fill="white"/>
<path d="M601.592 382.61H606.258V391.942H601.592V382.61Z" fill="#009695"/>
<path d="M578.262 349.948H587.594V363.946H578.262V349.948Z" fill="#009695"/>
</svg>
