<svg width="4321" height="2150" viewBox="0 0 4321 2150" fill="none" xmlns="http://www.w3.org/2000/svg">
<rect width="4321" height="2150" fill="#21292E"/>
<path d="M673.459 439.908L705.342 470.663L744.444 449.845L725.046 489.671L756.929 520.427L713.058 514.285L693.66 554.111L685.944 510.489L642.073 504.348L681.175 483.53L673.459 439.908Z" fill="white"/>
<path d="M1286.44 703.804L1312.67 729.109L1344.84 711.98L1328.88 744.749L1355.12 770.055L1319.02 765.002L1303.06 797.771L1296.71 761.879L1260.61 756.825L1292.79 739.696L1286.44 703.804Z" fill="white"/>
<path d="M565.82 1328.65L597.702 1359.41L636.805 1338.59L617.407 1378.42L649.289 1409.17L605.418 1403.03L586.02 1442.86L578.304 1399.23L534.433 1393.09L573.536 1372.28L565.82 1328.65Z" fill="white"/>
<path d="M807.553 873.303L832.733 897.594L863.616 881.151L848.296 912.606L873.477 936.897L838.827 932.046L823.507 963.5L817.413 929.048L782.764 924.197L813.647 907.755L807.553 873.303Z" fill="white"/>
<path d="M3290.91 630.368L3312.8 651.485L3339.65 637.191L3326.33 664.536L3348.22 685.652L3318.1 681.435L3304.78 708.78L3299.48 678.829L3269.36 674.612L3296.21 660.319L3290.91 630.368Z" fill="white"/>
<path d="M3720.95 294.674L3742.84 315.79L3769.69 301.497L3756.37 328.841L3778.26 349.958L3748.14 345.741L3734.82 373.085L3729.52 343.135L3699.4 338.918L3726.25 324.624L3720.95 294.674Z" fill="white"/>
<path d="M3881.82 917.315L3914.08 948.441L3953.66 927.372L3934.03 967.678L3966.29 998.805L3921.89 992.589L3902.26 1032.9L3894.45 988.748L3850.05 982.532L3889.63 961.463L3881.82 917.315Z" fill="white"/>
<path d="M3642.98 1495.05L3661.43 1512.85L3684.07 1500.8L3672.84 1523.85L3691.29 1541.65L3665.9 1538.1L3654.67 1561.15L3650.21 1535.9L3624.81 1532.35L3647.45 1520.3L3642.98 1495.05Z" fill="white"/>
<path d="M1153.15 1687.58L1171.61 1705.39L1194.24 1693.34L1183.01 1716.39L1201.46 1734.19L1176.07 1730.64L1164.84 1753.69L1160.38 1728.44L1134.98 1724.88L1157.62 1712.83L1153.15 1687.58Z" fill="white"/>
<path d="M1852.15 1419.58L1870.61 1437.39L1893.24 1425.34L1882.01 1448.39L1900.46 1466.19L1875.07 1462.64L1863.84 1485.69L1859.38 1460.44L1833.98 1456.88L1856.62 1444.83L1852.15 1419.58Z" fill="white"/>
<path d="M2864.15 1735.58L2882.61 1753.39L2905.24 1741.34L2894.01 1764.39L2912.46 1782.19L2887.07 1778.64L2875.84 1801.69L2871.38 1776.44L2845.98 1772.88L2868.62 1760.83L2864.15 1735.58Z" fill="white"/>
<path d="M2549.12 764.037L2566.97 781.251L2588.85 769.599L2578 791.889L2595.84 809.103L2571.29 805.665L2560.43 827.956L2556.11 803.541L2531.56 800.104L2553.44 788.452L2549.12 764.037Z" fill="white"/>
</svg>
